<svg width="12" height="12" viewBox="0 0 12 12" fill="none" xmlns="http://www.w3.org/2000/svg">
<path fill-rule="evenodd" clip-rule="evenodd" d="M8.36382 0.625C8.04175 0.625 7.77571 0.75975 7.52391 0.951867C7.28535 1.13388 7.02047 1.39878 6.70282 1.71645L3.96236 4.45687C3.75192 4.66697 3.58553 4.83309 3.48348 5.04541C3.38143 5.25774 3.35566 5.49145 3.32306 5.78702L3.31421 5.8669C3.25324 6.41548 3.20299 6.86767 3.21449 7.22387C3.22652 7.59639 3.30702 7.93761 3.57372 8.20431C3.84042 8.47101 4.18164 8.55151 4.55416 8.56354C4.91035 8.57504 5.36253 8.52479 5.91111 8.46382L5.99103 8.45497C6.28658 8.42237 6.5203 8.3966 6.73262 8.29455C6.94494 8.19251 7.11106 8.02611 7.32115 7.81567L10.0616 5.07521C10.3792 4.75756 10.6441 4.49268 10.8262 4.25412C11.0183 4.00232 11.153 3.73628 11.153 3.41421C11.153 3.09215 11.0183 2.82611 10.8262 2.57431C10.6441 2.33575 10.3793 2.07087 10.0616 1.75322L10.0248 1.71646C9.70717 1.39879 9.44228 1.13388 9.20372 0.951867C8.95192 0.75975 8.68588 0.625 8.36382 0.625ZM9.77739 4.29746L7.48057 2.00064C7.6834 1.80081 7.84027 1.65386 7.97885 1.54813C8.16393 1.40692 8.27167 1.375 8.36382 1.375C8.45596 1.375 8.5637 1.40692 8.74879 1.54813C8.94253 1.69595 9.17204 1.92434 9.51287 2.26516C9.85369 2.60599 10.0821 2.8355 10.2299 3.02924C10.3711 3.21433 10.403 3.32207 10.403 3.41421C10.403 3.50636 10.3711 3.6141 10.2299 3.79918C10.1242 3.93776 9.97722 4.09463 9.77739 4.29746ZM6.9496 2.53033L9.2477 4.82843L6.82696 7.24916C6.56324 7.51289 6.49037 7.57886 6.40773 7.61858C6.32509 7.65829 6.22805 7.67399 5.85737 7.71517C5.27238 7.78017 4.87422 7.82348 4.57837 7.81393C4.29258 7.8047 4.17721 7.74714 4.10405 7.67398C4.0309 7.60082 3.97333 7.48545 3.9641 7.19966C3.95455 6.90381 3.99786 6.50565 4.06285 5.92066C4.10404 5.54999 4.11974 5.45294 4.15945 5.3703C4.19917 5.28766 4.26515 5.21479 4.52887 4.95107L6.9496 2.53033Z" fill="#92A6B9"/>
<path d="M4.50449 1.96423C4.71159 1.96175 4.87746 1.79186 4.87497 1.58476C4.87249 1.37767 4.7026 1.2118 4.4955 1.21429C3.28225 1.22883 2.44947 1.29522 1.81012 1.75973C1.56605 1.93706 1.35141 2.1517 1.17408 2.39577C0.881162 2.79893 0.750003 3.27113 0.686864 3.85389C0.624993 4.42496 0.624996 5.14476 0.625 6.06303V6.10828C0.624996 7.02655 0.624993 7.74635 0.686864 8.31742C0.750003 8.90019 0.881162 9.37238 1.17408 9.77554C1.3514 10.0196 1.56605 10.2343 1.81012 10.4116C2.21328 10.7045 2.68547 10.8357 3.26824 10.8988C3.8393 10.9607 4.55908 10.9607 5.47733 10.9607H5.52264C6.44088 10.9607 7.1607 10.9607 7.73176 10.8988C8.31453 10.8357 8.78672 10.7045 9.18988 10.4116C9.43395 10.2343 9.6486 10.0196 9.82592 9.77554C10.2904 9.13619 10.3568 8.30341 10.3714 7.09015C10.3739 6.88306 10.208 6.71316 10.0009 6.71068C9.7938 6.7082 9.62391 6.87407 9.62142 7.08116C9.60644 8.33156 9.52226 8.91752 9.21916 9.3347C9.08809 9.5151 8.92945 9.67375 8.74904 9.80482C8.49504 9.98936 8.16993 10.0969 7.65098 10.1532C7.125 10.2101 6.44579 10.2107 5.5 10.2107C4.55421 10.2107 3.875 10.2101 3.34902 10.1532C2.83007 10.0969 2.50496 9.98936 2.25096 9.80482C2.07056 9.67375 1.91191 9.5151 1.78084 9.3347C1.5963 9.0807 1.48873 8.75559 1.4325 8.23663C1.37551 7.71066 1.375 7.03144 1.375 6.08566C1.375 5.13987 1.37551 4.46065 1.4325 3.93468C1.48873 3.41572 1.5963 3.09061 1.78084 2.83661C1.91191 2.65621 2.07056 2.49756 2.25096 2.36649C2.66813 2.0634 3.25409 1.97922 4.50449 1.96423Z" fill="#92A6B9"/>
</svg>
